<?xml version="1.0" encoding="UTF-8" standalone="no"?>
<!DOCTYPE svg PUBLIC "-//W3C//DTD SVG 1.1//EN" "http://www.w3.org/Graphics/SVG/1.1/DTD/svg11.dtd">
<svg width="100%" height="100%" viewBox="0 0 921 387" version="1.1" xmlns="http://www.w3.org/2000/svg" xmlns:xlink="http://www.w3.org/1999/xlink" xml:space="preserve" style="fill-rule:evenodd;clip-rule:evenodd;stroke-linejoin:round;stroke-miterlimit:1.41421;">
    <g transform="matrix(1,0,0,1,0,-1.42501)">
        <g transform="matrix(4.16667,0,0,4.16667,0,0)">
            <path d="M8.557,11.689L0,11.689L0,8.599L20.832,8.599L20.832,11.689L12.232,11.689L12.232,36.738L8.557,36.738L8.557,11.689Z" style="fill:rgb(0,107,181);fill-rule:nonzero;"/>
            <path d="M19.917,22.835C19.917,20.456 19.875,18.41 19.75,16.531L22.963,16.531L23.131,20.498L23.256,20.498C24.175,17.784 26.429,16.072 28.893,16.072C29.269,16.072 29.561,16.114 29.894,16.198L29.894,19.621C29.477,19.58 29.101,19.538 28.6,19.538C26.012,19.538 24.175,21.499 23.674,24.213C23.59,24.756 23.548,25.34 23.548,25.967L23.548,36.738L19.875,36.738L19.917,22.835Z" style="fill:rgb(0,107,181);fill-rule:nonzero;"/>
            <path d="M34.779,12.816C33.401,12.816 32.483,11.73 32.483,10.436C32.483,9.142 33.443,8.098 34.863,8.098C36.282,8.098 37.2,9.142 37.2,10.436C37.2,11.73 36.282,12.816 34.821,12.816L34.779,12.816ZM33.026,36.738L33.026,16.531L36.7,16.531L36.7,36.738L33.026,36.738Z" style="fill:rgb(0,107,181);fill-rule:nonzero;"/>
            <path d="M43.963,30.225C45.633,31.102 48.305,31.979 51.019,31.979C53.942,31.979 55.487,30.768 55.487,28.889C55.487,27.177 54.151,26.134 50.769,24.965C46.092,23.294 43.003,20.706 43.003,16.573C43.003,11.772 47.053,8.14 53.65,8.14C56.864,8.14 59.161,8.766 60.831,9.559L59.411,14.653C58.325,14.11 56.28,13.316 53.566,13.316C50.81,13.316 49.474,14.611 49.474,16.031C49.474,17.826 51.019,18.619 54.693,20.039C59.662,21.875 61.958,24.464 61.958,28.472C61.958,33.19 58.367,37.197 50.643,37.197C47.428,37.197 44.255,36.321 42.669,35.444L43.963,30.225Z" style="fill:rgb(112,67,154);"/>
            <path d="M67.201,16.323L70.249,26.343C70.583,27.553 71.001,29.056 71.251,30.142L71.376,30.142C71.668,29.056 72.002,27.511 72.294,26.343L74.799,16.323L81.605,16.323L76.845,29.766C73.922,37.866 71.96,41.08 69.664,43.126C67.493,45.046 65.155,45.756 63.527,45.923L62.191,40.579C62.984,40.412 63.986,40.037 64.947,39.494C65.907,38.992 66.993,37.949 67.577,36.947C67.786,36.613 67.911,36.321 67.911,36.029C67.911,35.82 67.869,35.485 67.66,34.984L60.145,16.323L67.201,16.323Z" style="fill:rgb(112,67,154);"/>
            <path d="M82.289,22.835C82.289,20.289 82.206,18.16 82.122,16.323L87.633,16.323L87.925,19.162L88.05,19.162C88.885,17.826 90.931,15.864 94.354,15.864C98.53,15.864 101.661,18.661 101.661,24.672L101.661,36.738L95.315,36.738L95.315,25.424C95.315,22.794 94.396,20.998 92.1,20.998C90.346,20.998 89.303,22.209 88.843,23.378C88.676,23.795 88.634,24.38 88.634,24.965L88.634,36.738L82.289,36.738L82.289,22.835Z" style="fill:rgb(112,67,154);"/>
            <path d="M109.552,28.513C109.76,31.186 112.349,32.438 115.313,32.438C117.483,32.438 119.237,32.146 120.948,31.562L121.784,35.861C119.695,36.738 117.15,37.155 114.395,37.155C107.464,37.155 103.498,33.148 103.498,26.718C103.498,21.541 106.754,15.822 113.81,15.822C120.406,15.822 122.911,20.957 122.911,26.008C122.911,27.094 122.785,28.054 122.703,28.555L109.552,28.513ZM117.025,24.171C117.025,22.669 116.355,20.039 113.476,20.039C110.763,20.039 109.677,22.502 109.51,24.171L117.025,24.171Z" style="fill:rgb(112,67,154);"/>
            <path d="M124.665,23.044C124.665,20.039 124.622,18.076 124.498,16.323L129.925,16.323L130.175,20.122L130.343,20.122C131.386,17.116 133.849,15.864 135.854,15.864C136.438,15.864 136.73,15.905 137.188,15.989L137.188,21.958C136.647,21.875 136.146,21.791 135.437,21.791C133.099,21.791 131.512,23.002 131.095,25.006C131.009,25.424 130.968,25.883 130.968,26.426L130.968,36.738L124.622,36.738L124.665,23.044Z" style="fill:rgb(112,67,154);"/>
            <path d="M157.403,33.774C157.403,37.699 156.61,40.913 154.272,42.959C152.06,44.879 149.012,45.463 146.006,45.463C143.292,45.463 140.495,44.921 138.658,43.919L139.91,39.076C141.205,39.828 143.417,40.621 145.839,40.621C148.845,40.621 151.141,39.034 151.141,35.235L151.141,33.941L151.058,33.941C149.847,35.611 147.885,36.571 145.547,36.571C140.495,36.571 136.904,32.48 136.904,26.635C136.904,20.039 141.121,15.864 146.173,15.864C148.97,15.864 150.724,17.074 151.768,18.744L151.851,18.744L152.06,16.323L157.57,16.323C157.487,17.659 157.403,19.371 157.403,22.418L157.403,33.774ZM151.058,24.631C151.058,24.255 151.016,23.837 150.933,23.461C150.473,21.791 149.263,20.665 147.509,20.665C145.171,20.665 143.334,22.752 143.334,26.468C143.334,29.515 144.837,31.895 147.467,31.895C149.137,31.895 150.432,30.81 150.849,29.348C151.016,28.847 151.058,28.18 151.058,27.637L151.058,24.631Z" style="fill:rgb(112,67,154);"/>
            <path d="M165.127,16.323L168.175,26.343C168.509,27.553 168.928,29.056 169.177,30.142L169.303,30.142C169.596,29.056 169.93,27.511 170.222,26.343L172.727,16.323L179.531,16.323L174.772,29.766C171.849,37.866 169.888,41.08 167.59,43.126C165.419,45.046 163.082,45.756 161.453,45.923L160.118,40.579C160.91,40.412 161.913,40.037 162.874,39.494C163.834,38.992 164.918,37.949 165.503,36.947C165.712,36.613 165.837,36.321 165.837,36.029C165.837,35.82 165.795,35.485 165.587,34.984L158.071,16.323L165.127,16.323Z" style="fill:rgb(112,67,154);"/>
            <clipPath id="_clip1">
                <path d="M165.842,84.506C161.656,76.652 164.637,66.868 172.504,62.676C180.359,58.504 190.144,61.485 194.329,69.345C198.514,77.214 195.527,86.985 187.667,91.17C179.802,95.352 170.026,92.374 165.842,84.506Z"/>
            </clipPath>
            <g clip-path="url(#_clip1)">
                <path d="M165.842,84.506C161.656,76.652 164.637,66.868 172.504,62.676C180.359,58.504 190.144,61.485 194.329,69.345C198.514,77.214 195.527,86.985 187.667,91.17C179.802,95.352 170.026,92.374 165.842,84.506Z" style="fill:white;fill-rule:nonzero;"/>
                <clipPath id="_clip2">
                    <path d="M165.842,84.506C161.656,76.652 164.637,66.868 172.504,62.676C180.359,58.504 190.144,61.485 194.329,69.345C198.514,77.214 195.527,86.985 187.667,91.17C179.802,95.352 170.026,92.374 165.842,84.506Z" clip-rule="nonzero"/>
                </clipPath>
                <g clip-path="url(#_clip2)">
                    <rect x="163.947" y="60.79" width="32.275" height="32.273" style="fill:url(#_Linear3);fill-rule:nonzero;"/>
                </g>
            </g>
            <clipPath id="_clip4">
                <path d="M202.313,66.619L174.908,52.472L188.5,25.641L215.904,39.786L202.313,66.619Z"/>
            </clipPath>
            <g clip-path="url(#_clip4)">
                <path d="M202.313,66.619L174.908,52.472L188.5,25.641L215.904,39.786L202.313,66.619Z" style="fill:white;fill-rule:nonzero;"/>
                <clipPath id="_clip5">
                    <path d="M202.313,66.619L174.908,52.472L188.5,25.641L215.904,39.786L202.313,66.619Z" clip-rule="nonzero"/>
                </clipPath>
                <g clip-path="url(#_clip5)">
                    <rect x="174.908" y="25.641" width="40.996" height="40.978" style="fill:url(#_Linear6);fill-rule:nonzero;"/>
                    <clipPath id="_clip7">
                        <path d="M202.313,66.619L174.908,52.472L188.5,25.641L215.904,39.786L202.313,66.619Z"/>
                    </clipPath>
                    <g clip-path="url(#_clip7)">
                        <path d="M202.313,66.619L174.908,52.472L188.5,25.641L215.904,39.786L202.313,66.619Z" style="fill:white;fill-rule:nonzero;"/>
                    </g>
                    <path d="M202.313,66.619L174.908,52.472L188.5,25.641L215.904,39.786L202.313,66.619Z" style="fill:url(#_Linear8);"/>
                </g>
            </g>
            <clipPath id="_clip9">
                <path d="M186.21,0.352L220.815,0.342L204.394,30.713L186.21,0.352Z"/>
            </clipPath>
            <g clip-path="url(#_clip9)">
                <path d="M186.21,0.352L220.815,0.342L204.394,30.713L186.21,0.352Z" style="fill:rgb(219,235,246);fill-rule:nonzero;"/>
                <clipPath id="_clip10">
                    <path d="M186.21,0.352L220.815,0.342L204.394,30.713L186.21,0.352Z" clip-rule="nonzero"/>
                </clipPath>
                <g clip-path="url(#_clip10)">
                    <rect x="186.21" y="0.342" width="34.605" height="30.371" style="fill:url(#_Linear11);fill-rule:nonzero;"/>
                    <clipPath id="_clip12">
                        <path d="M186.21,0.352L220.815,0.342L204.394,30.713L186.21,0.352Z"/>
                    </clipPath>
                    <g clip-path="url(#_clip12)">
                        <path d="M186.21,0.352L220.815,0.342L204.394,30.713L186.21,0.352Z" style="fill:rgb(214,222,241);fill-rule:nonzero;"/>
                    </g>
                    <path d="M186.21,0.352L220.815,0.342L204.394,30.713L186.21,0.352Z" style="fill:url(#_Linear13);"/>
                </g>
            </g>
            <path d="M114.882,73.924L116.515,73.924L116.515,85.077L121.859,85.077L121.859,86.43L114.882,86.43L114.882,73.924Z" style="fill:rgb(0,107,181);fill-rule:nonzero;"/>
            <path d="M123.64,73.924L125.272,73.924L125.272,85.077L130.616,85.077L130.616,86.43L123.64,86.43L123.64,73.924Z" style="fill:rgb(0,107,181);fill-rule:nonzero;"/>
            <path d="M140.417,86.042C139.841,86.338 138.635,86.635 137.114,86.635C133.589,86.635 130.953,84.409 130.953,80.29C130.953,76.356 133.606,73.72 137.484,73.72C139.024,73.72 140.027,74.055 140.454,74.278L140.045,75.594C139.452,75.297 138.58,75.075 137.541,75.075C134.609,75.075 132.661,76.95 132.661,80.234C132.661,83.313 134.424,85.262 137.448,85.262C138.449,85.262 139.452,85.057 140.102,84.743L140.417,86.042Z" style="fill:rgb(0,107,181);fill-rule:nonzero;"/>
            <path d="M63.867,65.138C63.148,65.509 61.64,65.881 59.739,65.881C55.332,65.881 52.038,63.097 52.038,57.948C52.038,53.031 55.354,49.737 60.203,49.737C62.127,49.737 63.379,50.155 63.913,50.433L63.403,52.08C62.661,51.709 61.571,51.431 60.272,51.431C56.607,51.431 54.171,53.773 54.171,57.878C54.171,61.729 56.375,64.164 60.156,64.164C61.409,64.164 62.661,63.909 63.472,63.514L63.867,65.138Z" style="fill:rgb(0,107,181);fill-rule:nonzero;"/>
            <path d="M70.618,65.881C67.602,65.881 65.236,63.654 65.236,60.105C65.236,56.348 67.718,54.145 70.802,54.145C74.027,54.145 76.207,56.487 76.207,59.897C76.207,64.071 73.308,65.881 70.641,65.881L70.618,65.881ZM70.687,64.35C72.635,64.35 74.096,62.517 74.096,59.966C74.096,58.064 73.145,55.675 70.734,55.675C68.344,55.675 67.3,57.901 67.3,60.036C67.3,62.494 68.692,64.35 70.664,64.35L70.687,64.35Z" style="fill:rgb(0,107,181);fill-rule:nonzero;"/>
            <path d="M78.781,57.438C78.781,56.255 78.758,55.327 78.689,54.399L80.499,54.399L80.614,56.231L80.66,56.231C81.216,55.188 82.516,54.145 84.372,54.145C85.925,54.145 88.337,55.072 88.337,58.922L88.337,65.626L86.296,65.626L86.296,59.154C86.296,57.344 85.624,55.815 83.699,55.815C82.377,55.815 81.333,56.765 80.961,57.901C80.869,58.157 80.823,58.528 80.823,58.853L80.823,65.626L78.781,65.626L78.781,57.438Z" style="fill:rgb(0,107,181);fill-rule:nonzero;"/>
            <path d="M91.376,63.561C92.002,63.932 93.069,64.35 94.089,64.35C95.55,64.35 96.247,63.63 96.247,62.68C96.247,61.706 95.667,61.172 94.182,60.616C92.141,59.874 91.19,58.784 91.19,57.438C91.19,55.628 92.674,54.145 95.063,54.145C96.2,54.145 97.197,54.446 97.8,54.84L97.313,56.301C96.873,56.046 96.061,55.652 95.017,55.652C93.811,55.652 93.162,56.348 93.162,57.183C93.162,58.133 93.811,58.551 95.272,59.108C97.197,59.827 98.218,60.801 98.218,62.494C98.218,64.489 96.664,65.881 94.043,65.881C92.814,65.881 91.677,65.555 90.888,65.092L91.376,63.561Z" style="fill:rgb(0,107,181);fill-rule:nonzero;"/>
            <path d="M110.232,62.563C110.232,63.723 110.256,64.744 110.326,65.626L108.517,65.626L108.4,63.794L108.354,63.794C107.844,64.698 106.638,65.881 104.643,65.881C102.88,65.881 100.77,64.883 100.77,60.963L100.77,54.399L102.811,54.399L102.811,60.592C102.811,62.726 103.483,64.187 105.315,64.187C106.685,64.187 107.635,63.237 108.007,62.309C108.122,62.03 108.191,61.659 108.191,61.264L108.191,54.399L110.232,54.399L110.232,62.563Z" style="fill:rgb(0,107,181);fill-rule:nonzero;"/>
            <rect x="113.619" y="49.157" width="2.041" height="16.469" style="fill:rgb(0,107,181);fill-rule:nonzero;"/>
            <path d="M121.505,51.709L121.505,54.399L124.426,54.399L124.426,55.954L121.505,55.954L121.505,62.006C121.505,63.399 121.899,64.187 123.036,64.187C123.593,64.187 123.917,64.141 124.219,64.048L124.312,65.602C123.917,65.741 123.291,65.881 122.502,65.881C121.552,65.881 120.786,65.555 120.299,65.022C119.741,64.396 119.51,63.399 119.51,62.077L119.51,55.954L117.771,55.954L117.771,54.399L119.51,54.399L119.51,52.335L121.505,51.709Z" style="fill:rgb(0,107,181);fill-rule:nonzero;"/>
            <path d="M127.697,52.335C126.933,52.335 126.422,51.732 126.422,51.013C126.422,50.294 126.955,49.714 127.744,49.714C128.532,49.714 129.043,50.294 129.043,51.013C129.043,51.732 128.532,52.335 127.72,52.335L127.697,52.335ZM126.724,65.626L126.724,54.399L128.765,54.399L128.765,65.626L126.724,65.626Z" style="fill:rgb(0,107,181);fill-rule:nonzero;"/>
            <path d="M132.151,57.438C132.151,56.255 132.128,55.327 132.059,54.399L133.867,54.399L133.983,56.231L134.029,56.231C134.585,55.188 135.884,54.145 137.741,54.145C139.295,54.145 141.707,55.072 141.707,58.922L141.707,65.626L139.666,65.626L139.666,59.154C139.666,57.344 138.993,55.815 137.068,55.815C135.745,55.815 134.702,56.765 134.331,57.901C134.237,58.157 134.19,58.528 134.19,58.853L134.19,65.626L132.151,65.626L132.151,57.438Z" style="fill:rgb(0,107,181);fill-rule:nonzero;"/>
            <path d="M154.626,63.979C154.626,66.577 154.093,68.13 153.025,69.127C151.912,70.125 150.334,70.473 148.92,70.473C147.574,70.473 146.09,70.148 145.186,69.545L145.695,67.967C146.438,68.456 147.599,68.872 148.988,68.872C151.077,68.872 152.606,67.782 152.606,64.929L152.606,63.7L152.561,63.7C151.959,64.744 150.729,65.579 148.988,65.579C146.206,65.579 144.211,63.213 144.211,60.083C144.211,56.278 146.693,54.145 149.291,54.145C151.239,54.145 152.282,55.142 152.792,56.069L152.839,56.069L152.908,54.399L154.719,54.399C154.647,55.188 154.626,56.092 154.626,57.461L154.626,63.979ZM152.585,58.806C152.585,58.481 152.561,58.18 152.468,57.901C152.098,56.696 151.122,55.721 149.615,55.721C147.668,55.721 146.275,57.368 146.275,59.989C146.275,62.169 147.413,64.025 149.593,64.025C150.867,64.025 152.005,63.237 152.421,61.915C152.538,61.589 152.585,61.196 152.585,60.824L152.585,58.806Z" style="fill:rgb(0,107,181);fill-rule:nonzero;"/>
        </g>
    </g>
    <defs>
        <linearGradient id="_Linear3" x1="0" y1="0" x2="1" y2="0" gradientUnits="userSpaceOnUse" gradientTransform="matrix(-13.4905,44.9687,-17.0097,-35.6649,214.478,79.7456)"><stop offset="0" style="stop-color:white;stop-opacity:1"/><stop offset="0.4" style="stop-color:rgb(226,111,146);stop-opacity:1"/><stop offset="0.7" style="stop-color:rgb(209,51,101);stop-opacity:1"/><stop offset="0.9" style="stop-color:rgb(202,33,87);stop-opacity:1"/><stop offset="1" style="stop-color:rgb(202,30,86);stop-opacity:1"/></linearGradient>
        <linearGradient id="_Linear6" x1="0" y1="0" x2="1" y2="0" gradientUnits="userSpaceOnUse" gradientTransform="matrix(-13.3044,54.1584,-28.1711,-25.5774,229.138,44.8321)"><stop offset="0" style="stop-color:white;stop-opacity:1"/><stop offset="0.3" style="stop-color:rgb(158,128,186);stop-opacity:1"/><stop offset="0.5" style="stop-color:rgb(128,87,164);stop-opacity:1"/><stop offset="1" style="stop-color:rgb(112,67,154);stop-opacity:1"/></linearGradient>
        <linearGradient id="_Linear8" x1="0" y1="0" x2="1" y2="0" gradientUnits="userSpaceOnUse" gradientTransform="matrix(-13.3044,54.1584,-28.1711,-25.5774,229.138,44.8321)"><stop offset="0" style="stop-color:white;stop-opacity:1"/><stop offset="0.3" style="stop-color:rgb(158,128,186);stop-opacity:1"/><stop offset="0.5" style="stop-color:rgb(128,87,164);stop-opacity:1"/><stop offset="1" style="stop-color:rgb(112,67,154);stop-opacity:1"/></linearGradient>
        <linearGradient id="_Linear11" x1="0" y1="0" x2="1" y2="0" gradientUnits="userSpaceOnUse" gradientTransform="matrix(-2.87621,41.3907,-31.6043,-3.76685,225.721,0.788297)"><stop offset="0" style="stop-color:rgb(219,235,246);stop-opacity:1"/><stop offset="0.2" style="stop-color:rgb(87,162,209);stop-opacity:1"/><stop offset="0.4" style="stop-color:rgb(0,124,193);stop-opacity:1"/><stop offset="1" style="stop-color:rgb(0,107,181);stop-opacity:1"/></linearGradient>
        <linearGradient id="_Linear13" x1="0" y1="0" x2="1" y2="0" gradientUnits="userSpaceOnUse" gradientTransform="matrix(-2.87621,41.3907,-31.6043,-3.76685,225.721,0.788297)"><stop offset="0" style="stop-color:rgb(214,222,241);stop-opacity:1"/><stop offset="0.2" style="stop-color:rgb(91,156,206);stop-opacity:1"/><stop offset="0.4" style="stop-color:rgb(1,124,191);stop-opacity:1"/><stop offset="1" style="stop-color:rgb(0,108,181);stop-opacity:1"/></linearGradient>
    </defs>
</svg>
